<svg viewBox="0 0 58 47" xmlns="http://www.w3.org/2000/svg">
  <g>
    <path d="M3.4016675,10.9457224 C3.60166036,11.0776764 3.6769154,11.3292138 3.98721359,11.2972562 C4.05628329,11.29004 4.2377201,11.5250831 4.27792485,11.7096126 C4.29235733,11.772497 4.27173951,11.8786787 4.34699455,11.8828023 C4.62121156,11.8941421 4.61914977,12.1013512 4.64698383,12.2817571 C4.69440482,12.5910244 5.00779568,12.6435999 5.17480002,12.9229713 C5.20366497,12.5745302 5.44180079,12.4704102 5.63663919,12.3456724 C5.86755878,12.1982549 5.84281739,11.933316 5.98198768,11.7271378 C6.0706443,11.8972348 6.1510538,11.951872 6.19950568,11.715798 C6.21084548,11.6632225 6.19950568,11.5859057 6.27372983,11.5776586 C6.36960269,11.5683805 6.36032467,11.6549754 6.38609695,11.7137362 C6.44485774,11.8487829 6.97370482,11.9807369 7.06957768,11.8745552 C7.25410717,11.668377 7.32420776,11.7395084 7.36235073,11.9673354 C7.36235073,11.9951694 7.41389528,12.0157872 7.44379111,12.0436213 C7.50123461,11.9511721 7.52793882,11.8429118 7.52007705,11.734354 C7.52007705,11.6508518 7.47471784,11.5580716 7.53863309,11.4859093 C7.60254833,11.4137469 7.5829614,11.5889984 7.6747107,11.5436392 C7.81388098,11.4725077 7.81388098,11.3292138 7.8808889,11.2085996 C8.0179974,11.4147778 8.21799026,11.4343647 8.42416846,11.4003453 C8.59220369,11.3714804 8.78085674,11.3426154 8.7736405,11.091078 C8.97466425,11.4591061 9.11589632,11.4446736 9.43134896,11.0034523 C9.49320242,11.2374645 9.62103291,11.3725112 9.86844675,11.3477699 C9.89834259,11.3477699 9.94885624,11.3993144 9.97153585,11.4384883 C10.0993663,11.7013655 10.3405948,11.8673389 10.5148154,12.0889805 C10.5684217,12.1570193 10.6405841,12.2106256 10.6405841,12.3075294 C10.6405841,12.491028 10.6910978,12.5961789 10.8962451,12.4869044 C10.9395425,12.4631939 10.9704692,12.4570086 11.0096431,12.5137076 C11.2601496,12.8724577 11.7034327,13.0425547 11.9199198,13.4415095 C11.964985,13.5022491 11.9946942,13.5729853 12.0065147,13.6476877 C11.9973986,13.7841338 12.0508962,13.9173086 12.1518703,14.0095304 C12.1817662,14.03221 12.2219709,14.0682912 12.2230018,14.0981871 C12.2230018,14.3981763 12.457014,14.5105435 12.6240184,14.7033201 C12.7910227,14.8960967 13.1064754,15.2074258 12.8982354,15.5971026 C12.7724667,15.8321457 12.8889574,16.0403857 13.0167879,16.2341932 C13.1367041,16.3961906 13.1968098,16.5947216 13.1868849,16.7960288 C13.1652362,17.0836474 13.1631744,17.3702351 13.3724453,17.6114636 C13.4456385,17.6970275 13.4208971,17.8176418 13.41265,17.9207309 C13.4061799,18.2004031 13.4699811,18.4772292 13.5982104,18.7258568 C13.659033,18.8629653 13.7136702,19.0062591 13.9074777,19.0351241 C13.9969584,19.047309 14.070454,19.1118715 14.094069,19.1990357 C14.18788,19.7680876 14.6559046,20.1392083 14.850743,20.6639318 C15.0053766,21.0762882 15.256914,21.4577179 15.3311382,21.9071864 C15.3375203,21.9543025 15.3584186,21.998261 15.3909298,22.0329551 C15.7001971,22.3040794 15.8465837,22.6638604 15.9702906,23.0421974 C16.0284947,23.2078368 16.1501285,23.3435624 16.3084228,23.4195035 C16.4923326,23.4953039 16.5893212,23.6977341 16.5331571,23.8885589 C16.4702727,24.1906099 16.656864,24.4194677 16.751706,24.6710052 C16.865104,24.9740871 17.0743748,25.2421188 17.0609733,25.5884981 C17.0596812,25.6173182 17.0705244,25.6453611 17.0908691,25.665815 C17.5867277,25.9390011 17.8217708,26.450323 18.1763973,26.8513396 C18.2438439,26.9454715 18.3379071,27.0172755 18.4464908,27.0575178 C18.7557581,27.1379273 18.9083299,27.3451364 18.9619363,27.6440948 C18.9722452,27.7028556 18.9918321,27.7853269 19.0526547,27.7688326 C19.3371806,27.6946085 19.2866669,27.925528 19.3413041,28.0667601 C19.4856289,28.4409735 19.8021124,28.6512753 20.1113797,28.8677624 C19.8320083,29.1234234 19.8289156,29.1584737 20.0484954,29.4759881 C20.1711714,29.6533014 20.1763259,29.8759738 20.2721987,30.0646269 C20.3062181,30.1326657 20.3113726,30.215137 20.3979674,30.2440019 C20.6041456,30.3151334 20.6247634,30.4388403 20.7134201,30.6646054 C20.8360961,30.9738727 20.7752735,31.3047887 20.8989804,31.6089016 C21.0020695,31.8748715 20.9762973,32.1831079 21.1639194,32.4336144 C21.2348736,32.5586988 21.2562156,32.7058849 21.2237111,32.8459708 C21.2000006,33.0325621 21.1896917,33.2150298 21.3133986,33.3954357 C21.4066665,33.5572613 21.4297561,33.7501714 21.3773139,33.9294372 C21.2766696,34.33932 21.3128738,34.7708743 21.480403,35.1582593 C21.517515,35.2469159 21.4865883,35.3644375 21.4886501,35.4675266 C21.4886501,35.7046315 21.7185388,35.8654505 21.7195697,36.1097717 C21.7195697,36.1262659 21.782454,36.192243 21.7267859,36.2128608 C21.5206077,36.2778069 21.5597816,36.4324406 21.5669978,36.5839815 C21.5886465,37.0231411 21.5154533,37.4334357 21.2123713,37.7798151 C21.1092822,37.8993985 20.9866062,38.0261981 20.8350652,38.0127965 C20.5257979,37.9870242 20.2536427,38.1086693 19.9639623,38.1488741 C19.7405589,38.1715168 19.5504559,38.321429 19.4763509,38.5333964 C19.4114047,38.7034934 19.2639873,38.821015 19.1608982,38.9674015 C18.8949283,39.3467694 18.7145224,39.7457242 18.95472,40.2137488 C19.1299715,40.551881 19.4866598,40.5116763 19.7732475,40.599302 C20.0825148,40.694144 20.4165235,40.6590937 20.7340379,40.7498121 C21.0134093,40.8291907 21.3010279,40.6910513 21.5896774,40.7137309 C21.6742105,40.7209471 21.763898,40.6817733 21.8185352,40.7807388 C21.8731724,40.8797043 21.7927629,40.9199091 21.7628671,40.986917 C21.4917428,41.5992663 20.959803,41.8796686 20.3855967,42.1446076 C20.0371556,42.3054266 19.626861,42.4198555 19.4237754,42.8085014 C19.4237754,42.8167485 19.4124356,42.8270574 19.4041885,42.8291192 C18.9918321,42.9641659 19.0732725,43.30436 19.0784269,43.6136273 C19.0784269,43.8198055 19.1258479,43.9837171 19.3639837,44.0476324 C19.5825326,44.1063932 19.6670657,44.3300965 19.8144831,44.4785448 C20.0845766,44.7486383 20.420647,44.8208006 20.7876442,44.7816268 C21.0446758,44.7415045 21.3075634,44.7630585 21.5546271,44.8445111 C21.8566782,44.9568783 22.1298643,44.741422 22.4298536,44.7548236 C22.7607696,44.7641016 22.9339593,44.5218423 23.0483882,44.2393781 C23.0897782,44.1518173 23.1679829,44.0872133 23.2617826,44.0630958 C23.4576519,43.9888716 23.6153782,43.8785663 23.6246563,43.6321833 C23.6308416,43.4641481 23.7421778,43.4981675 23.8524832,43.5414649 C24.0174257,43.606411 24.0720629,43.5796079 24.0421671,43.3744606 C23.9813445,42.9621042 23.9700047,42.5394389 24.1627814,42.1425458 C24.2183995,42.0172778 24.2253821,41.8757884 24.1823683,41.7456528 C24.0359818,41.2621649 24.2524689,40.9374342 24.6256514,40.6776497 C24.6998756,40.6250743 24.7761615,40.5745606 24.7679144,40.4786877 C24.7442039,40.2127179 24.8792506,40.0158177 25.0483167,39.842628 C25.218617,39.6570552 25.3188714,39.4179027 25.3318117,39.1663635 C25.3761401,38.650918 25.4266537,38.1251636 25.1184173,37.6561082 C25.0008957,37.4767332 25.074089,37.327254 25.2307844,37.2437518 C25.4596422,37.1179831 25.5050014,36.9262374 25.4575805,36.7076885 C25.4153139,36.5107883 25.4369626,36.4118228 25.6637587,36.4406877 C25.7761258,36.4561511 25.8895238,36.3798651 25.849319,36.2829614 C25.7194268,35.9736941 25.8719986,35.6881373 25.944161,35.4231983 C26.0771459,34.9407413 25.8287012,34.5984855 25.6472644,34.2160249 C25.5922082,34.1204381 25.5305486,34.0288098 25.4627349,33.9418079 C25.556546,33.9191283 25.6926236,33.9479933 25.6874691,33.8005758 C25.6812838,33.6346024 25.7699404,33.4356404 25.594689,33.317088 C25.2173828,33.061427 25.2544949,32.6583486 25.253464,32.2985677 C25.253464,32.0851732 25.518403,32.0542465 25.7029325,32.0583701 C25.783342,32.0583701 25.8678751,32.0222889 25.8441646,31.9996093 C25.6379864,31.7934311 25.9472537,31.6728168 25.9101416,31.5068434 C25.8534027,31.3143668 25.7491806,31.1392453 25.6070596,30.9975832 C25.5369591,30.9171737 25.6153068,30.7450149 25.4936616,30.6419258 C25.3967429,30.5506053 25.3061584,30.4527878 25.2225373,30.3491528 C25.2946997,30.3326585 25.3699547,30.4646126 25.4359317,30.3728633 C25.5019088,30.281114 25.4153139,30.2367857 25.3596458,30.1811175 C24.9947104,29.8141204 24.9957413,29.8130895 25.3081013,29.3997022 C25.3318117,29.3687754 25.3421207,29.3162 25.3699547,29.3048602 C25.9946747,29.0481683 25.8750913,28.4265411 26.0441574,27.9461459 C26.1025089,27.7723945 26.0925575,27.5829496 26.0163234,27.4162679 C25.9864275,27.3430746 25.925605,27.2173059 26.066837,27.2193677 C26.3637336,27.2193677 26.6142402,27.0008188 26.9307237,27.0853519 C27.0812338,27.1255566 27.2131878,27.0255602 27.3430801,26.9039151 C27.5938752,26.6564433 27.9207102,26.5006519 28.270882,26.4616628 C28.6179067,26.4369447 28.9665732,26.4490392 29.311051,26.497744 C29.6996969,26.5379488 30.0615397,26.3193999 30.4264751,26.1884767 C30.5068846,26.1596118 30.5852323,26.0853876 30.6615182,26.0853876 C31.0563495,26.1039436 31.420254,25.8957037 31.817147,25.9369393 C31.8639209,25.9491043 31.913339,25.9462186 31.9583791,25.9286922 C32.1501248,25.7926146 32.2954805,25.8379738 32.4738246,25.9781749 C32.6274274,26.0987892 32.7779374,25.9596189 32.8995826,25.8503445 C32.9933937,25.7668423 33.0727723,25.6524134 33.2088499,25.8039544 C33.2463374,25.8282863 33.291522,25.8378375 33.3356495,25.8307575 C33.4655417,25.5482934 33.8892379,25.6689076 33.9933579,25.3472696 C34.0088213,25.2977869 34.0572732,25.2050067 34.1335591,25.2245936 C34.2366482,25.249335 34.1933508,25.3513932 34.1995361,25.4214938 C34.2211848,25.7122051 34.3026252,25.7421009 34.5840585,25.6781857 C34.8654917,25.6142704 35.0603301,25.3689184 35.3592885,25.334899 C35.5025824,25.3184047 35.6376291,25.2761382 35.7788611,25.334899 C35.8401675,25.3669119 35.9146051,25.3596299 35.9685451,25.3163429 C36.2180207,25.1101647 36.5427514,25.0215081 36.7695474,24.7720325 C36.914903,24.6122444 37.1623169,24.5957501 37.3489081,24.4751359 C37.6262178,24.2947299 37.8818788,24.0978298 38.0385742,23.8029949 C38.0924394,23.6897053 38.1928942,23.6054286 38.3138221,23.5720753 C38.6333983,23.4813569 38.9189551,23.2813641 39.2653345,23.2772405 C39.2838905,23.2772405 39.3127555,23.2772405 39.3199717,23.2638389 C39.5684165,22.8442663 40.1220049,22.9360156 40.4415811,22.5762346 C40.6106473,22.3865507 40.9570266,22.2741836 41.2363981,22.1710945 C41.3360134,22.1412849 41.4190842,22.0719971 41.4662868,21.9793487 C41.6652488,21.5937955 41.8569945,21.49483 42.3239881,21.5309112 C42.7909817,21.5669923 42.9610787,21.730904 42.9713877,22.2360406 C42.9711561,22.713449 43.0018032,23.1903725 43.063137,23.6638246 C43.1662261,24.34112 43.0971564,25.0575893 43.4754934,25.6915872 C43.6435286,25.9740514 43.56415,26.3441412 43.6631155,26.667841 C43.7620811,26.9915408 43.8507377,27.3049317 44.2187658,27.4709051 C44.456042,27.5695045 44.6103434,27.8015673 44.6094735,28.058513 C44.6218441,28.3925217 44.8867831,28.6605533 44.9620382,28.9863149 C44.9724282,29.0125785 44.9952487,29.0319178 45.0228607,29.0378594 C45.332128,29.0430139 45.3455296,29.2935204 45.4011977,29.4996986 C45.4321245,29.6110348 45.4795455,29.7264946 45.5919126,29.7203093 C46.032103,29.694537 46.231065,30.0491635 46.5021893,30.2800831 C46.6269271,30.3831722 46.7248618,30.5223425 46.8949588,30.555331 C46.9898008,30.573887 46.9980479,30.6408949 47.0330982,30.7140882 C47.148558,30.9883052 47.2722649,31.2583986 47.4021572,31.5264303 C47.4296047,31.598063 47.4799893,31.6585969 47.545451,31.6985891 C47.9402823,31.8583772 48.0773908,32.257332 48.236148,32.5686611 C48.633041,33.344922 48.9577717,34.1634495 48.7907674,35.0819734 C48.7639642,35.2304217 48.6979872,35.3912407 48.8938565,35.5592759 C49.020656,35.6685503 49.0062236,35.9881266 48.9969456,36.1839958 C48.9732351,36.6561439 48.9969456,37.1478789 48.7649951,37.5963165 C48.6691222,37.780846 48.4680985,37.8952749 48.4433571,38.1282563 C48.4340791,38.2189747 48.3196502,38.1952642 48.2443951,38.1901097 C48.0258462,38.1756773 47.8072973,38.1550594 47.5877176,38.1437196 C47.0722721,38.1169165 46.8042404,38.2942297 46.6959968,38.7880265 C46.6366828,38.9985836 46.5511355,39.2008493 46.4413668,39.3900669 C46.2104472,39.8508751 46.3217834,40.1591115 46.7289853,40.4694097 C47.1102929,40.7796887 47.5786159,40.9637757 48.0691436,40.996195 C48.2753218,41.0095966 48.4608822,40.9322798 48.6639678,40.9436196 C49.0670461,40.9652683 49.4721863,40.9570212 49.8762956,40.9528976 C50.2144278,40.9528976 50.2670033,40.8807352 50.3010227,40.5529119 C50.3350421,40.2250886 50.3721541,39.908605 50.7339969,39.747786 C50.8587347,39.691087 51.063882,39.6127393 50.8875996,39.3972831 C51.0793454,38.9900811 50.9174955,38.5323655 51.0793454,38.1127929 C51.2102685,37.7746607 51.4484043,37.506629 51.6071616,37.1973617 C51.8648843,36.693256 52.3061057,36.2798687 52.378268,35.6829828 C52.3844534,35.6345309 52.3906387,35.5798937 52.454554,35.5798937 C52.5184692,35.5798937 52.5421797,35.6448398 52.5710446,35.6943226 C52.7298019,35.9695705 52.7772228,36.2870849 52.9102078,36.5716109 C53.1266949,37.0375736 53.4256533,37.44993 53.7050247,37.8798115 C54.099856,38.4983461 54.5297375,39.1168807 54.6627225,39.8673694 C54.7091126,40.1364319 54.5699423,40.4034327 54.6905565,40.6828042 C54.8225106,40.9838243 54.7936456,41.3528833 55.1348706,41.5611233 C55.1915214,41.5949502 55.2268006,41.655528 55.2282665,41.7214933 C55.2297324,41.7874587 55.197179,41.8495439 55.1420868,41.885854 C54.9121981,42.0672908 54.9668353,42.2982104 55.0389977,42.5105739 C55.1023998,42.6613907 55.1053528,42.8308182 55.0472448,42.9837529 C55.0175166,43.0333083 55.0015058,43.0898798 55.0008547,43.1476645 C55.0956967,43.6321833 54.8132326,43.966192 54.5235522,44.2733975 C54.1720184,44.6445183 53.9895507,45.0981103 53.778218,45.5434552 C53.6256461,45.8692168 53.740075,46.1527118 53.778218,46.4485775 C53.816361,46.7444432 54.4513898,46.8949533 54.770966,46.8300072 C54.8777425,46.8199858 54.9854512,46.8301272 55.0884805,46.859903 C55.6863973,46.9444361 56.2894685,47.1485525 56.8915088,46.8867062 C57.2007761,46.7516595 57.353348,46.4743498 57.4749931,46.1815768 C57.5224141,46.0692096 57.5512791,45.9949855 57.6883876,45.9537498 C57.8481756,45.8992694 57.9383393,45.7302124 57.8945658,45.5671657 C57.8059091,45.2578984 57.8842569,44.9847123 57.9223998,44.6836921 C57.9883769,44.1558759 58.0677555,43.6043493 57.8976584,43.0796257 C57.7873531,42.7384008 57.7945693,42.3982068 57.7945693,42.0538892 C57.804113,41.8618075 57.7590789,41.6709487 57.6646771,41.5033934 C57.5894167,41.3682264 57.5536933,41.2146157 57.561588,41.0601103 C57.561588,40.3580735 57.5110743,39.6498514 57.5780822,38.954 C57.6430284,38.281859 57.5017963,37.629305 57.4048925,36.9953071 C57.3018034,36.324197 57.0543896,35.6551488 56.5028629,35.1036221 C56.0812285,34.6850803 55.5812464,34.3273611 55.244145,33.8284099 C55.0214726,33.4974939 54.8513755,33.1304967 54.6606607,32.7789629 C54.6451973,32.7500979 54.6359193,32.6892754 54.6513827,32.6758738 C54.8936421,32.4511395 54.6905565,32.3088766 54.5482936,32.1686754 C54.3733744,32.0171698 54.2716839,31.7980287 54.2689221,31.5666351 C54.2620071,31.4413346 54.2154359,31.3214769 54.1359372,31.2243792 C53.9802726,30.9872743 54.0555277,30.7192426 54.0081067,30.469767 C53.9977978,30.4120371 53.9338825,30.1130787 54.2379954,30.2326621 C54.3245902,30.2677124 54.3276829,30.1357583 54.269953,30.0708122 C53.9606857,29.7182475 53.8802762,29.2192962 53.5297733,28.890442 C53.4727348,28.8328809 53.4674333,28.741873 53.5174026,28.6780785 C53.6349242,28.4636531 53.6029665,28.2069613 53.7235808,27.9935668 C53.7369824,27.9688255 53.7524457,27.9306825 53.7431677,27.9110956 C53.5617309,27.5492528 53.7988358,27.1626687 53.6854378,26.8080422 C53.5566194,26.4785316 53.6642942,26.1035698 53.948315,25.892611 C54.0452188,25.8091088 54.1544932,25.7122051 54.1544932,25.5905599 C54.1544932,25.1297516 54.4823166,24.8606891 54.7513791,24.5596689 C54.8904804,24.4103859 54.9409725,24.1990237 54.8843641,24.0029878 C54.8441593,23.8050567 54.7977692,23.6112492 54.9719898,23.4390904 C55.0678627,23.3432175 55.0132254,23.1999237 55.0245652,23.0772477 C55.0328124,22.9937455 55.0008547,22.8535443 55.0905423,22.847359 C55.5028987,22.818494 55.357543,22.3628402 55.6235129,22.1937741 C55.8894828,22.024708 55.9843247,21.7175024 55.9595834,21.381432 C55.9603494,21.2464153 55.9996958,21.1144311 56.0729814,21.0010332 C56.369878,20.4958966 56.227615,19.9505553 56.2131826,19.42377 C56.2039045,19.0629581 55.9667996,18.780494 55.6760883,18.5763776 C55.4760955,18.4361764 55.3853771,18.2330909 55.253423,18.0464996 C54.9245688,17.5815677 55.0792025,17.0248866 54.9152908,16.5321207 C54.8462211,16.3259425 54.8122017,16.1125481 54.6874639,15.9197715 C54.1432445,15.0391962 53.4353127,14.2710746 52.6019714,13.6569657 C52.5610248,13.616251 52.5145161,13.581543 52.463832,13.5538766 C51.9159183,13.3571405 51.4078503,13.0634737 50.9638856,12.6868973 C50.4917375,12.3095912 49.8659867,12.2745409 49.4175491,11.8621845 C48.7763349,11.2714839 47.9320351,11.0374717 47.1361873,10.8034594 C46.4887877,10.6117137 45.8352029,10.2880139 45.1156409,10.4024428 C44.9527602,10.4271842 44.8259606,10.3106935 44.6744196,10.2880139 C44.0187729,10.2137898 43.35591,10.1323494 42.6982015,10.0179205 C41.9384349,9.88390464 41.1683593,10.0395692 40.4096235,9.91483137 C40.3332668,9.9064644 40.2560587,9.91856152 40.1859202,9.94988167 C39.8199539,10.1065771 39.431308,10.0467854 39.0519401,10.0869902 C38.0519758,10.1900793 37.028301,10.0869902 36.0520473,10.3333731 C35.6396909,10.4364622 35.2902188,10.2931684 34.90982,10.2972919 C34.497929,10.3141497 34.0927685,10.4074869 33.7150174,10.5725398 C33.5810015,10.6251153 33.4428621,10.6601656 33.3109081,10.7117101 C33.1419598,10.7882822 32.9440975,10.7614466 32.8016479,10.6426404 C32.4810408,10.3931648 32.0985803,10.4024428 31.7264286,10.4364622 C31.458397,10.4591418 31.1955198,10.4364622 30.9305808,10.4364622 C30.3553436,10.4302769 29.7770137,10.3746088 29.2038383,10.4787288 C29.0795803,10.4921316 28.9539303,10.4834059 28.8327176,10.4529565 C28.5770566,10.4086282 28.3172721,10.3828559 28.0647038,10.4849141 C27.7100773,10.6313006 27.362667,10.4333695 27.0101023,10.4849141 C26.7321399,10.5295324 26.4498537,10.4360779 26.2534283,10.2344076 C25.9557807,9.92660879 25.5270339,9.78279597 25.1039848,9.84885435 C25.0166943,9.86001673 24.9284584,9.83712707 24.8576019,9.78493911 C24.5040063,9.53752527 24.1359782,9.5571122 23.768981,9.73545634 C23.5782662,9.82926742 23.4081691,9.69525159 23.2360103,9.73545634 C22.7638623,9.85400881 22.4308845,9.58906982 22.1092465,9.32309994 C21.9484275,9.18908411 21.8195661,9.02207977 21.593801,8.98702947 C21.5360711,8.97878235 21.4721558,8.94063938 21.4721558,8.88394037 C21.4721558,8.40560695 21.0917571,8.34375349 20.7567175,8.23550993 C20.4713317,8.1600969 20.1991328,8.04155308 19.9495298,7.8839761 C19.8278847,7.79738126 19.749537,7.69532305 19.7753093,7.55306009 C19.806236,7.38296308 19.7124249,7.28296665 19.6175829,7.1747231 C19.1732689,6.66752472 18.6794721,6.22527248 18.0516595,5.95311726 C17.9687525,5.92450431 17.8988782,5.86706843 17.8547593,5.79126737 C17.5980675,5.27582187 17.1455063,4.9294425 16.7640766,4.52327144 C16.5651147,4.30987701 16.5197555,3.99854792 16.2383222,3.83360536 C15.748649,3.54598678 15.408455,3.07177691 14.9528012,2.73673734 C14.8947637,2.68909821 14.8494292,2.62782585 14.8208471,2.5583932 C14.7022946,2.31613381 14.5538463,2.09552314 14.2847838,1.98727958 C14.1295938,1.9101923 13.9965618,1.79489787 13.8981997,1.65224001 C13.5889324,1.28008836 13.2487383,0.917214725 12.8198877,0.69557316 C12.4393925,0.496324571 12.0361121,0.344012662 11.6188997,0.241981119 C11.2787056,0.158478948 10.9642839,-0.0198651946 10.594194,0.0285866824 C10.4697617,0.029188679 10.3459758,0.04652564 10.2261659,0.0801312324 C9.75298695,0.27393874 9.21692363,0.203838152 8.75611536,0.396614769 C8.25097877,0.60279297 7.72522436,0.72649989 7.20359351,0.865670175 C6.7128894,0.997624223 6.35826289,1.31823132 5.95209184,1.56461427 C5.7964273,1.65945624 5.61705226,1.57183051 5.46963485,1.6986301 C5.09542142,2.02336077 4.79337035,2.34809143 4.8449149,2.90477257 C4.87171807,3.21403987 4.79233946,3.5542339 4.47997949,3.75628854 C4.42473698,3.79912067 4.39331632,3.86579378 4.39544643,3.93566357 C4.33977831,4.37379225 4.14803259,4.71604806 3.71196569,4.87892884 C3.10786357,5.10366308 2.59860341,5.50674146 2.01305733,5.77271134 C1.66255439,5.93146855 1.36462689,6.20671645 1.04608157,6.43454336 C1.00900692,6.46584297 0.982091177,6.50747266 0.968764742,6.55412671 C0.820099638,6.97173941 0.544299008,7.33226311 0.180133127,7.58501771 C-0.060064476,7.76542364 -0.054910021,8.18087271 0.16260798,8.40148339 C0.488369536,8.73033762 0.84299604,9.01280175 1.30689699,9.13135421 C1.50379717,9.18186787 1.61616429,9.34784132 1.71925339,9.50453676 C1.80363457,9.6569194 1.92047612,9.78889404 2.0615092,9.89112088 C2.41819749,10.1107007 2.58314005,10.4725434 2.7027234,10.8467568 C2.84807904,11.3044724 3.15837723,11.6250795 3.49754037,11.933316 C3.55320848,11.9848605 3.61609283,12.0570229 3.69237876,11.9838296 C3.7686647,11.9106364 3.68310075,11.8632154 3.64701956,11.8127017 C3.45836651,11.5560098 3.6078457,11.2075687 3.4016675,10.9457224 Z" fill-rule="nonzero"></path>
  </g>
</svg>